<svg width="462" height="530" viewBox="0 0 462 530" fill="none" xmlns="http://www.w3.org/2000/svg">
<path d="M231.506 34.8999C231.506 59.9448 231.506 403.268 231.506 403.268L175.671 327.09L46.0918 365.701L231.506 34.8999Z" fill="white" fill-opacity="0.25"/>
<path d="M231.527 436.665C223.099 436.665 215.724 432.491 210.457 425.186L170.424 359.443L31.3635 401.185C21.8821 404.315 11.3472 401.185 6.07972 392.836C-0.241231 385.532 -1.29472 375.096 3.97273 365.704L210.457 11.9457C215.724 4.64094 223.099 0.466797 231.527 0.466797C239.955 0.466797 248.383 4.64094 252.597 11.9457L458.027 365.704C463.295 374.053 462.241 384.488 455.92 392.836C449.6 400.141 439.065 403.272 430.637 401.185L291.576 359.443L251.543 425.186C248.383 432.491 239.955 436.665 231.527 436.665ZM182.013 307.266C190.441 307.266 197.815 311.441 203.083 318.745L231.527 366.748L259.971 318.745C265.239 309.354 276.827 305.179 287.362 308.31L386.39 337.529L231.527 71.4273L76.6636 337.529L175.692 308.31C177.799 307.266 179.906 307.266 182.013 307.266Z" fill="white"/>
<path d="M132.489 529.532C118.793 529.532 108.258 519.097 108.258 505.531V456.485C108.258 442.919 118.793 432.483 132.489 432.483C146.184 432.483 156.719 442.919 156.719 456.485V505.531C156.719 519.097 145.13 529.532 132.489 529.532Z" fill="white"/>
<path d="M331.63 529.532C317.935 529.532 307.4 519.097 307.4 505.531V456.485C307.4 442.919 317.935 432.483 331.63 432.483C345.326 432.483 355.86 442.919 355.86 456.485V505.531C355.86 519.097 344.272 529.532 331.63 529.532Z" fill="white"/>
</svg>
